<svg width="17" height="17" viewBox="0 0 17 17" fill="none" xmlns="http://www.w3.org/2000/svg">
<path fill-rule="evenodd" clip-rule="evenodd" d="M6.49299 0.0124718C6.34627 0.0315086 6.28346 0.0481425 6.01291 0.139618C5.62135 0.272006 5.28392 0.484538 4.98191 0.788981C4.61174 1.16213 4.37736 1.58971 4.262 2.10237C4.19062 2.4196 4.19045 2.92963 4.26161 3.24441C4.35271 3.64727 4.46815 3.89409 4.79512 4.38519C4.99794 4.6898 5.42965 5.32636 5.53289 5.47302C5.56427 5.51762 5.68729 5.70324 5.80627 5.88553C6.1106 6.3518 6.32042 6.53715 6.66766 6.64644C6.884 6.71455 7.24736 6.70966 7.4554 6.63586C7.76597 6.5257 8.01653 6.32052 8.17336 6.04793C8.35084 5.73945 9.32991 3.70291 9.38901 3.5193C9.48559 3.21922 9.51814 3.00236 9.51725 2.66455C9.51602 2.19346 9.43321 1.85015 9.22161 1.43919C8.85278 0.722839 8.19304 0.221296 7.39714 0.0522232C7.17713 0.00547027 6.70635 -0.0152236 6.49299 0.0124718ZM12.8015 3.23627C12.2485 3.33798 11.8342 3.50208 11.479 3.76006C11.1397 4.00651 11.0123 4.15118 10.128 5.29425C9.03891 6.7021 9.09427 6.62666 9.0338 6.78533C8.93898 7.03408 8.91776 7.1386 8.91776 7.35673C8.91776 7.93707 9.22587 8.44418 9.73499 8.70175C9.92001 8.79536 10.1296 8.8503 10.4122 8.87927C10.5324 8.8916 10.6371 8.90567 10.6449 8.91053C10.6527 8.9154 10.732 8.92826 10.821 8.93914C10.9101 8.94999 11.0615 8.9727 11.1576 8.98958C11.2536 9.00646 11.4478 9.03575 11.5891 9.05466C11.7304 9.07356 11.9486 9.10685 12.0739 9.12864C12.7215 9.24112 13.3383 9.27289 13.7056 9.21268C14.0799 9.15134 14.5126 8.97506 14.8655 8.7402C15.1165 8.57315 15.5013 8.19426 15.6545 7.96336C16.08 7.32182 16.2669 6.53931 16.1618 5.83878C16.0591 5.15428 15.7993 4.61819 15.3363 4.13514C14.9336 3.71505 14.491 3.46038 13.873 3.29307C13.6967 3.24535 13.6294 3.23872 13.2638 3.23312C13.0378 3.22964 12.8297 3.23107 12.8015 3.23627ZM1.94508 5.17154C1.47315 5.22542 1.04095 5.43236 0.688988 5.77297C0.47304 5.98198 0.377672 6.10589 0.257482 6.33367C0.0721109 6.68499 -0.000693685 6.99093 4.97649e-06 7.41551C0.000703638 7.84708 0.100469 8.20474 0.320485 8.56441C0.44795 8.77282 0.78528 9.12035 1.00094 9.26546C1.38779 9.52576 1.93813 9.66827 2.38322 9.62341C2.59923 9.60164 2.76395 9.56118 3.44149 9.3635C4.9222 8.93147 4.87337 8.94811 5.03402 8.82148C5.15119 8.72911 5.20291 8.6708 5.30336 8.51778C5.51616 8.1936 5.52222 7.74353 5.31858 7.38745C5.27256 7.30699 5.03242 7.05355 4.49938 6.52286C4.08463 6.10993 3.6846 5.72197 3.61046 5.66069C3.15413 5.28363 2.54093 5.10353 1.94508 5.17154ZM9.2473 9.95948C8.97774 9.99828 8.71737 10.1401 8.50719 10.3626C8.25202 10.6328 8.13606 10.924 8.13781 11.2902C8.1383 11.3937 8.14777 11.5204 8.15885 11.5717C8.18012 11.67 8.19588 11.8012 8.24713 12.3071C8.26445 12.478 8.29727 12.7669 8.32008 12.9492C8.34286 13.1315 8.37628 13.4065 8.3943 13.5603C8.46034 14.1237 8.53532 14.3993 8.7156 14.741C8.86688 15.0279 8.98066 15.1816 9.21393 15.4143C9.60777 15.8071 10.0505 16.0427 10.6233 16.1641C10.8614 16.2145 11.3661 16.214 11.6097 16.163C12.5959 15.9565 13.3667 15.277 13.6809 14.3371C13.9158 13.6346 13.8461 12.8405 13.4922 12.1859C13.2891 11.8104 12.9547 11.441 12.6124 11.214C12.3936 11.0689 12.3073 11.0258 11.9076 10.8616C11.7268 10.7873 11.1924 10.5625 10.72 10.3619C9.70287 9.93007 9.61617 9.90637 9.2473 9.95948ZM5.2616 9.97848C5.21161 9.98838 5.12376 10.012 5.06639 10.0311C4.96636 10.0643 2.75211 11.2168 2.45514 11.3903C1.70264 11.8298 1.18031 12.5639 1.00262 13.4318C0.939026 13.7425 0.939622 14.2846 1.0039 14.5839C1.13069 15.1742 1.37329 15.6416 1.76669 16.0533C2.26745 16.5774 2.70709 16.8129 3.48928 16.9761C3.67377 17.0146 4.24195 17.0049 4.47553 16.9592C5.051 16.8468 5.56531 16.5804 5.97724 16.1814C6.31701 15.8523 6.49556 15.5962 6.66809 15.1905C6.85324 14.7552 6.91461 14.3816 6.93428 13.5707C6.94118 13.2858 6.95559 12.8431 6.96627 12.5867C6.97698 12.3304 6.98633 11.9109 6.98707 11.6546C6.98861 11.1213 6.97567 11.0441 6.83782 10.7638C6.76859 10.6231 6.71393 10.55 6.56559 10.3996C6.40901 10.2408 6.34944 10.1962 6.18476 10.1143C6.07739 10.0609 5.92482 10.0036 5.8457 9.98693C5.6892 9.95401 5.40602 9.94991 5.2616 9.97848Z" fill="white"/>
</svg>
