<svg width="16" height="18" viewBox="0 0 16 18" fill="none" xmlns="http://www.w3.org/2000/svg">
<path d="M15.9997 4.40429C14.8249 4.40426 13.6983 3.94022 12.8676 3.11426C12.037 2.2883 11.5703 1.16806 11.5703 0H8.40574V12.3214C8.40515 12.8832 8.22675 13.4305 7.89584 13.8858C7.56493 14.3412 7.09828 14.6814 6.56203 14.8583C6.02579 15.0352 5.44716 15.0397 4.90815 14.8714C4.36914 14.703 3.89709 14.3703 3.55891 13.9202C3.22073 13.4702 3.03358 12.9258 3.02397 12.3641C3.01437 11.8024 3.1828 11.252 3.5054 10.7908C3.828 10.3296 4.28839 9.9811 4.82134 9.79462C5.35428 9.60814 5.93274 9.59317 6.47472 9.75183V6.69308C5.32291 6.53865 4.15114 6.73728 3.11587 7.26245C2.08059 7.78763 1.23109 8.61434 0.680793 9.6322C0.1305 10.6501 -0.0943933 11.8106 0.036145 12.9589C0.166683 14.1072 0.646439 15.1886 1.41135 16.0586C2.17626 16.9287 3.18992 17.546 4.31697 17.8281C5.44403 18.1103 6.63083 18.0438 7.7189 17.6377C8.80698 17.2315 9.74454 16.505 10.4064 15.555C11.0682 14.6051 11.4229 13.477 11.4229 12.3214L11.5153 6.09334C12.8155 7.04242 14.387 7.55308 16 7.55069L15.9997 4.40429Z" fill="white"/>
</svg>
